# Exported from ProBuilder
# http://www.procore3d.com/probuilder
# 22/03/2020 15:27:45

g Arm
v 0 0 0
v -1.6 0 0
v 0 0.2 0
v -1.6 0.2 0
v -1.6 0 0
v -1.6 0 -0.32
v -1.6 0.2 0
v -1.6 0.2 -0.32
v -1.6 0 -0.32
v 0 0 -0.32
v -1.6 0.2 -0.32
v 0 0.2 -0.32
v 0 0 -0.32
v 0 0 0
v 0 0.2 -0.32
v 0 0.2 0
v 0 0.2 0
v -1.6 0.2 0
v 0 0.2 -0.32
v -1.6 0.2 -0.32
v 0 0 -0.32
v -1.6 0 -0.32
v 0 0 0
v -1.6 0 0

vn 0 0 1
vn 0 0 1
vn 0 0 1
vn 0 0 1
vn -1 0 0
vn -1 0 0
vn -1 0 0
vn -1 0 0
vn 0 0 -1
vn 0 0 -1
vn 0 0 -1
vn 0 0 -1
vn 1 0 0
vn 1 0 0
vn 1 0 0
vn 1 0 0
vn 0 1 0
vn 0 1 0
vn 0 1 0
vn 0 1 0
vn 0 -1 0
vn 0 -1 0
vn 0 -1 0
vn 0 -1 0

vt -0.6719073 0.1374458
vt -1.071907 0.1374458
vt -0.6719073 0.1874458
vt -1.071907 0.1874458
vt -0.1919073 0.1374458
vt -0.2719073 0.1374458
vt -0.1919073 0.1874458
vt -0.2719073 0.1874458
vt 0.9280927 0.1374458
vt 0.5280927 0.1374458
vt 0.9280927 0.1874458
vt 0.5280927 0.1874458
vt 0.1280927 0.1374458
vt 0.04809272 0.1374458
vt 0.1280927 0.1874458
vt 0.04809272 0.1874458
vt 0.5280927 -0.05755424
vt 0.9280927 -0.05755424
vt 0.5280927 -0.1375542
vt 0.9280927 -0.1375542
vt -0.6719073 -0.1375542
vt -1.071907 -0.1375542
vt -0.6719073 -0.05755424
vt -1.071907 -0.05755424

g Arm
f 3/3/3 4/4/4 2/2/2 1/1/1
f 7/7/7 8/8/8 6/6/6 5/5/5
f 11/11/11 12/12/12 10/10/10 9/9/9
f 15/15/15 16/16/16 14/14/14 13/13/13
f 19/19/19 20/20/20 18/18/18 17/17/17
f 23/23/23 24/24/24 22/22/22 21/21/21

