# Exported from ProBuilder
# http://www.procore3d.com/probuilder
# 15/03/2020 16:31:47

g Rotor
v 0 0 0
v -0.2 0 0
v 0 0.2 0
v -0.2 0.2 0
v -0.2 0 0
v -0.2 0 -0.8
v -0.2 0.2 0
v -0.2 0.2 -0.8
v -0.2 0 -0.8
v 0 0 -0.8
v -0.2 0.2 -0.8
v 0 0.2 -0.8
v 0 0 -0.8
v 0 0 0
v 0 0.2 -0.8
v 0 0.2 0
v 0 0.2 0
v -0.2 0.2 0
v 0 0.2 -0.8
v -0.2 0.2 -0.8
v 0 0 -0.8
v -0.2 0 -0.8
v 0 0 0
v -0.2 0 0

vn 0 0 1
vn 0 0 1
vn 0 0 1
vn 0 0 1
vn -1 0 0
vn -1 0 0
vn -1 0 0
vn -1 0 0
vn 0 0 -1
vn 0 0 -1
vn 0 0 -1
vn 0 0 -1
vn 1 0 0
vn 1 0 0
vn 1 0 0
vn 1 0 0
vn 0 1 0
vn 0 1 0
vn 0 1 0
vn 0 1 0
vn 0 -1 0
vn 0 -1 0
vn 0 -1 0
vn 0 -1 0

vt 0.175 0.07499985
vt 0.125 0.07499985
vt 0.175 0.1249999
vt 0.125 0.1249999
vt -0.05000001 0.07499985
vt -0.25 0.07499985
vt -0.05000001 0.1249999
vt -0.25 0.1249999
vt 0.375 0.07499985
vt 0.325 0.07499985
vt 0.375 0.1249999
vt 0.325 0.1249999
vt 0.75 0.07499985
vt 0.55 0.07499985
vt 0.75 0.1249999
vt 0.55 0.1249999
vt 0.325 -0.3000002
vt 0.375 -0.3000002
vt 0.325 -0.5000001
vt 0.375 -0.5000001
vt 0.175 -0.5000001
vt 0.125 -0.5000001
vt 0.175 -0.3000002
vt 0.125 -0.3000002

g Rotor
f 3/3/3 4/4/4 2/2/2 1/1/1
f 7/7/7 8/8/8 6/6/6 5/5/5
f 11/11/11 12/12/12 10/10/10 9/9/9
f 15/15/15 16/16/16 14/14/14 13/13/13
f 19/19/19 20/20/20 18/18/18 17/17/17
f 23/23/23 24/24/24 22/22/22 21/21/21

