# Exported from ProBuilder
# http://www.procore3d.com/probuilder
# 22/03/2020 14:45:55

g Short_Rotor
v 0.1 0.1 0
v 0.1 -0.1 0
v -0.1 -0.1 0
v -0.1 0.1 0
v -0.1 0.1 0
v -0.1 -0.1 0
v -0.1 -0.1 -0.4
v -0.1 0.1 -0.4
v -0.1 0.1 -0.4
v -0.1 -0.1 -0.4
v 0.1 -0.1 -0.4
v 0.1 0.1 -0.4
v 0.1 0.1 -0.4
v 0.1 -0.1 -0.4
v 0.1 -0.1 0
v 0.1 0.1 0
v 0.1 0.1 -0.4
v 0.1 0.1 0
v -0.1 0.1 0
v -0.1 0.1 -0.4
v 0.1 -0.1 0
v 0.1 -0.1 -0.4
v -0.1 -0.1 -0.4
v -0.1 -0.1 0

vn 0 0 1
vn 0 0 1
vn 0 0 1
vn 0 0 1
vn -1 0 0
vn -1 0 0
vn -1 0 0
vn -1 0 0
vn 0 0 -1
vn 0 0 -1
vn 0 0 -1
vn 0 0 -1
vn 1 0 0
vn 1 0 0
vn 1 0 0
vn 1 0 0
vn 0 1 0
vn 0 1 0
vn 0 1 0
vn 0 1 0
vn 0 -1 0
vn 0 -1 0
vn 0 -1 0
vn 0 -1 0

vt -0.075 0.125
vt -0.075 0.075
vt -0.125 0.075
vt -0.125 0.125
vt -0.15 0.125
vt -0.15 0.075
vt -0.25 0.075
vt -0.25 0.125
vt 0.125 0.125
vt 0.125 0.075
vt 0.075 0.075
vt 0.075 0.125
vt 0.25 0.125
vt 0.25 0.075
vt 0.15 0.075
vt 0.15 0.125
vt 0.075 -0.25
vt 0.075 -0.15
vt 0.125 -0.15
vt 0.125 -0.25
vt -0.075 -0.15
vt -0.075 -0.25
vt -0.125 -0.25
vt -0.125 -0.15

g Short_Rotor
f 4/4/4 3/3/3 2/2/2 1/1/1
f 8/8/8 7/7/7 6/6/6 5/5/5
f 12/12/12 11/11/11 10/10/10 9/9/9
f 16/16/16 15/15/15 14/14/14 13/13/13
f 20/20/20 19/19/19 18/18/18 17/17/17
f 24/24/24 23/23/23 22/22/22 21/21/21

