# Exported from ProBuilder
# http://www.procore3d.com/probuilder
# 27/01/2020 19:59:37

g Step3Mesh
v -1.5 0 0.75
v -1.5 0.2 0.75
v 1.5 0.2 0.75
v 1.5 0 0.75
v -1.5 0 0
v -1.5 0.2 0
v -1.5 0.2 0.75
v -1.5 0 0.75
v 1.5 0 0
v 1.5 0.2 0
v -1.5 0.2 0
v -1.5 0 0
v 1.5 0 0.75
v 1.5 0.2 0.75
v 1.5 0.2 0
v 1.5 0 0
v -1.5 0.2 0.75
v -1.5 0.2 0
v 1.5 0.2 0
v 1.5 0.2 0.75
v -1.5 0 0
v -1.5 0 0.75
v 1.5 0 0.75
v 1.5 0 0

vn 0 0 1
vn 0 0 1
vn 0 0 1
vn 0 0 1
vn -1 0 0
vn -1 0 0
vn -1 0 0
vn -1 0 0
vn 0 0 -1
vn 0 0 -1
vn 0 0 -1
vn 0 0 -1
vn 1 0 0
vn 1 0 0
vn 1 0 0
vn 1 0 0
vn 0 1 0
vn 0 1 0
vn 0 1 0
vn 0 1 0
vn 0 -1 0
vn 0 -1 0
vn 0 -1 0
vn 0 -1 0

vt -1.875 0.075
vt -1.875 0.125
vt -1.125 0.125
vt -1.125 0.075
vt -0.46875 0.075
vt -0.46875 0.125
vt -0.28125 0.125
vt -0.28125 0.075
vt 1.125 0.075
vt 1.125 0.125
vt 1.875 0.125
vt 1.875 0.075
vt 0 0
vt 0 0.2
vt 0.75 0.2
vt 0.75 0
vt 1.875 -0.3117575
vt 1.875 -0.4992575
vt 1.125 -0.4992575
vt 1.125 -0.3117575
vt -1.875 -0.46875
vt -1.875 -0.28125
vt -1.125 -0.28125
vt -1.125 -0.46875

g Step3Mesh
f 4/4/4 3/3/3 2/2/2 1/1/1
f 8/8/8 7/7/7 6/6/6 5/5/5
f 12/12/12 11/11/11 10/10/10 9/9/9
f 16/16/16 15/15/15 14/14/14 13/13/13
f 20/20/20 19/19/19 18/18/18 17/17/17
f 24/24/24 23/23/23 22/22/22 21/21/21

