# Exported from ProBuilder
# http://www.procore3d.com/probuilder
# 08/02/2020 15:24:40

g Wall 3
v 0 1 0
v 0 0 0
v -0.6 0 0
v -0.6 1 0
v -0.6 1 0
v -0.6 0 0
v -0.6 0 -0.75
v -0.6 1 -0.75
v -0.6 1 -0.75
v -0.6 0 -0.75
v 0 0 -0.75
v 0 1 -0.75
v 0 1 -0.75
v 0 0 -0.75
v 0 0 0
v 0 1 0
v 0 1 -0.75
v 0 1 0
v -0.6 1 0
v -0.6 1 -0.75
v 0 0 0
v 0 0 -0.75
v -0.6 0 -0.75
v -0.6 0 0

vn 0 0 1
vn 0 0 1
vn 0 0 1
vn 0 0 1
vn -1 0 0
vn -1 0 0
vn -1 0 0
vn -1 0 0
vn 0 0 -1
vn 0 0 -1
vn 0 0 -1
vn 0 0 -1
vn 1 0 0
vn 1 0 0
vn 1 0 0
vn 1 0 0
vn 0 1 0
vn 0 1 0
vn 0 1 0
vn 0 1 0
vn 0 -1 0
vn 0 -1 0
vn 0 -1 0
vn 0 -1 0

vt -0.225 0.625
vt -0.225 0.375
vt -0.375 0.375
vt -0.375 0.625
vt -0.28125 0.625
vt -0.28125 0.375
vt -0.46875 0.375
vt -0.46875 0.625
vt 0.375 0.625
vt 0.375 0.375
vt 0.225 0.375
vt 0.225 0.625
vt 0.9154291 0.6731151
vt 0.9154291 0.4231151
vt 0.7279291 0.4231151
vt 0.7279291 0.6731151
vt 0.7246171 0.5007334
vt 0.7246171 0.6882334
vt 0.874617 0.6882334
vt 0.874617 0.5007334
vt -0.225 -0.28125
vt -0.225 -0.46875
vt -0.375 -0.46875
vt -0.375 -0.28125

g Wall 3
f 4/4/4 3/3/3 2/2/2 1/1/1
f 8/8/8 7/7/7 6/6/6 5/5/5
f 12/12/12 11/11/11 10/10/10 9/9/9
f 16/16/16 15/15/15 14/14/14 13/13/13
f 20/20/20 19/19/19 18/18/18 17/17/17
f 24/24/24 23/23/23 22/22/22 21/21/21

