# Exported from ProBuilder
# http://www.procore3d.com/probuilder
# 22/07/2020 14:50:38

g Step4Mesh
v 0 0 1.5
v 0 0.2 1.5
v 1.5 0.2 1.5
v 1.5 0 1.5
v 0 0 0.75
v 0 0.2 0.75
v 0 0.2 1.5
v 0 0 1.5
v 1.5 0 0.75
v 1.5 0.2 0.75
v 0 0.2 0.75
v 0 0 0.75
v 1.5 0 1.5
v 1.5 0.2 1.5
v 1.5 0.2 0.75
v 1.5 0 0.75
v 0 0.2 1.5
v 0 0.2 0.75
v 1.5 0.2 0.75
v 1.5 0.2 1.5
v 0 0 0.75
v 0 0 1.5
v 1.5 0 1.5
v 1.5 0 0.75

vn 0 0 1
vn 0 0 1
vn 0 0 1
vn 0 0 1
vn -1 0 0
vn -1 0 0
vn -1 0 0
vn -1 0 0
vn 0 0 -1
vn 0 0 -1
vn 0 0 -1
vn 0 0 -1
vn 1 0 0
vn 1 0 0
vn 1 0 0
vn 1 0 0
vn 0 1 0
vn 0 1 0
vn 0 1 0
vn 0 1 0
vn 0 -1 0
vn 0 -1 0
vn 0 -1 0
vn 0 -1 0

vt -0.9375 0.075
vt -0.9375 0.125
vt -0.5625 0.125
vt -0.5625 0.075
vt 0.1252795 0.075
vt 0.1252795 0.125
vt 0.3127795 0.125
vt 0.3127795 0.075
vt 0.500045 0.075
vt 0.500045 0.125
vt 0.875045 0.125
vt 0.875045 0.075
vt -0.2130933 0.075
vt -0.2130933 0.125
vt -0.02559328 0.125
vt -0.02559328 0.075
vt 0.50025 0.5001521
vt 0.50025 0.3126521
vt 0.12525 0.3126521
vt 0.12525 0.5001521
vt 0.1251648 0.312508
vt 0.1251648 0.500008
vt 0.5001647 0.500008
vt 0.5001647 0.312508

g Step4Mesh
f 4/4/4 3/3/3 2/2/2 1/1/1
f 8/8/8 7/7/7 6/6/6 5/5/5
f 12/12/12 11/11/11 10/10/10 9/9/9
f 16/16/16 15/15/15 14/14/14 13/13/13
f 20/20/20 19/19/19 18/18/18 17/17/17
f 24/24/24 23/23/23 22/22/22 21/21/21

