# Exported from ProBuilder
# http://www.procore3d.com/probuilder
# 10/04/2020 17:20:39

g Small_Wall
v 0 0.2 0
v 0 0 0
v -0.2 0 0
v -0.2 0.2 0
v -0.2 0.2 0
v -0.2 0 0
v -0.2 0 -3
v -0.2 0.2 -3
v -0.2 0.2 -3
v -0.2 0 -3
v 0 0 -3
v 0 0.2 -3
v 0 0.2 -3
v 0 0 -3
v 0 0 0
v 0 0.2 0
v 0 0.2 -3
v 0 0.2 0
v -0.2 0.2 0
v -0.2 0.2 -3
v 0 0 0
v 0 0 -3
v -0.2 0 -3
v -0.2 0 0

vn 0 0 1
vn 0 0 1
vn 0 0 1
vn 0 0 1
vn -1 0 0
vn -1 0 0
vn -1 0 0
vn -1 0 0
vn 0 0 -1
vn 0 0 -1
vn 0 0 -1
vn 0 0 -1
vn 1 0 0
vn 1 0 0
vn 1 0 0
vn 1 0 0
vn 0 1 0
vn 0 1 0
vn 0 1 0
vn 0 1 0
vn 0 -1 0
vn 0 -1 0
vn 0 -1 0
vn 0 -1 0

vt 0.9247153 0.425
vt 0.9247153 0.375
vt 0.8747153 0.375
vt 0.8747153 0.425
vt 0.875 0.425
vt 0.875 0.375
vt 0.125 0.375
vt 0.125 0.425
vt 0.1247631 0.425
vt 0.1247631 0.3750001
vt 0.07476309 0.3750001
vt 0.07476309 0.425
vt 0.875 0.425
vt 0.875 0.375
vt 0.125 0.375
vt 0.125 0.425
vt 0.075 -1.875
vt 0.075 -1.125
vt 0.125 -1.125
vt 0.125 -1.875
vt -0.075 -1.125
vt -0.075 -1.875
vt -0.125 -1.875
vt -0.125 -1.125

g Small_Wall
f 4/4/4 3/3/3 2/2/2 1/1/1
f 8/8/8 7/7/7 6/6/6 5/5/5
f 12/12/12 11/11/11 10/10/10 9/9/9
f 16/16/16 15/15/15 14/14/14 13/13/13
f 20/20/20 19/19/19 18/18/18 17/17/17
f 24/24/24 23/23/23 22/22/22 21/21/21

