# Exported from ProBuilder
# http://www.procore3d.com/probuilder
# 10/04/2020 17:20:27

g Wall
v 0 1 0
v 0 0 0
v -0.2 0 0
v -0.2 1 0
v -0.2 1 0
v -0.2 0 0
v -0.2 0 -3
v -0.2 1 -3
v -0.2 1 -3
v -0.2 0 -3
v 0 0 -3
v 0 1 -3
v 0 1 -3
v 0 0 -3
v 0 0 0
v 0 1 0
v 0 1 -3
v 0 1 0
v -0.2 1 0
v -0.2 1 -3
v 0 0 0
v 0 0 -3
v -0.2 0 -3
v -0.2 0 0

vn 0 0 1
vn 0 0 1
vn 0 0 1
vn 0 0 1
vn -1 0 0
vn -1 0 0
vn -1 0 0
vn -1 0 0
vn 0 0 -1
vn 0 0 -1
vn 0 0 -1
vn 0 0 -1
vn 1 0 0
vn 1 0 0
vn 1 0 0
vn 1 0 0
vn 0 1 0
vn 0 1 0
vn 0 1 0
vn 0 1 0
vn 0 -1 0
vn 0 -1 0
vn 0 -1 0
vn 0 -1 0

vt 0.92499 0.625
vt 0.92499 0.375
vt 0.87499 0.375
vt 0.87499 0.625
vt 0.875 0.625
vt 0.875 0.375
vt 0.125 0.375
vt 0.125 0.625
vt 0.125 0.625
vt 0.125 0.375
vt 0.075 0.375
vt 0.075 0.625
vt 0.875 0.625
vt 0.875 0.375
vt 0.125 0.375
vt 0.125 0.625
vt 0.075 -1.875
vt 0.075 -1.125
vt 0.125 -1.125
vt 0.125 -1.875
vt -0.075 -1.125
vt -0.075 -1.875
vt -0.125 -1.875
vt -0.125 -1.125

g Wall
f 4/4/4 3/3/3 2/2/2 1/1/1
f 8/8/8 7/7/7 6/6/6 5/5/5
f 12/12/12 11/11/11 10/10/10 9/9/9
f 16/16/16 15/15/15 14/14/14 13/13/13
f 20/20/20 19/19/19 18/18/18 17/17/17
f 24/24/24 23/23/23 22/22/22 21/21/21

