# Exported from ProBuilder
# http://www.procore3d.com/probuilder
# 08/02/2020 16:18:06

g Step3Mesh50Percent
v 0.75 -0.3 2.25
v 0.75 -0.5 2.25
v -0.75 -0.5 2.25
v -0.75 -0.3 2.25
v -0.75 -0.3 2.25
v -0.75 -0.5 2.25
v -0.75 -0.5 1.5
v -0.75 -0.3 1.5
v -0.75 -0.3 1.5
v -0.75 -0.5 1.5
v 0.75 -0.5 1.5
v 0.75 -0.3 1.5
v 0.75 -0.3 1.5
v 0.75 -0.5 1.5
v 0.75 -0.5 2.25
v 0.75 -0.3 2.25
v 0.75 -0.3 1.5
v 0.75 -0.3 2.25
v -0.75 -0.3 2.25
v -0.75 -0.3 1.5
v 0.75 -0.5 2.25
v 0.75 -0.5 1.5
v -0.75 -0.5 1.5
v -0.75 -0.5 2.25

vn 0 0 1
vn 0 0 1
vn 0 0 1
vn 0 0 1
vn -1 0 0
vn -1 0 0
vn -1 0 0
vn -1 0 0
vn 0 0 -1
vn 0 0 -1
vn 0 0 -1
vn 0 0 -1
vn 1 0 0
vn 1 0 0
vn 1 0 0
vn 1 0 0
vn 0 1 0
vn 0 1 0
vn 0 1 0
vn 0 1 0
vn 0 -1 0
vn 0 -1 0
vn 0 -1 0
vn 0 -1 0

vt -0.5625 0.125
vt -0.5625 0.075
vt -0.9375 0.075
vt -0.9375 0.125
vt -0.28125 0.125
vt -0.28125 0.075
vt -0.46875 0.075
vt -0.46875 0.125
vt 0.9375 0.125
vt 0.9375 0.075
vt 0.5625 0.075
vt 0.5625 0.125
vt 0.46875 0.125
vt 0.46875 0.075
vt 0.28125 0.075
vt 0.28125 0.125
vt 0.3123181 0.4998785
vt 0.3123181 0.6873785
vt 0.6873181 0.6873785
vt 0.6873181 0.4998785
vt 0.6872872 0.687241
vt 0.6872872 0.499741
vt 0.3122872 0.499741
vt 0.3122872 0.687241

g Step3Mesh50Percent
f 4/4/4 3/3/3 2/2/2 1/1/1
f 8/8/8 7/7/7 6/6/6 5/5/5
f 12/12/12 11/11/11 10/10/10 9/9/9
f 16/16/16 15/15/15 14/14/14 13/13/13
f 20/20/20 19/19/19 18/18/18 17/17/17
f 24/24/24 23/23/23 22/22/22 21/21/21

