# Exported from ProBuilder
# http://www.procore3d.com/probuilder
# 01/02/2020 18:55:56

g Step2Mesh75Percent
v 1.149519 0 0.75
v -1.100481 0 0.75
v 1.149519 0.2 0.75
v -1.100481 0.2 0.75
v -1.100481 0 0.75
v -1.100481 0 0
v -1.100481 0.2 0.75
v -1.100481 0.2 0
v -1.100481 0 0
v 1.149519 0 0
v -1.100481 0.2 0
v 1.149519 0.2 0
v 1.149519 0 0
v 1.149519 0 0.75
v 1.149519 0.2 0
v 1.149519 0.2 0.75
v 1.149519 0.2 0.75
v -1.100481 0.2 0.75
v 1.149519 0.2 0
v -1.100481 0.2 0
v 1.149519 0 0
v -1.100481 0 0
v 1.149519 0 0.75
v -1.100481 0 0.75

vn 0 0 1
vn 0 0 1
vn 0 0 1
vn 0 0 1
vn -1 0 0
vn -1 0 0
vn -1 0 0
vn -1 0 0
vn 0 0 -1
vn 0 0 -1
vn 0 0 -1
vn 0 0 -1
vn 1 0 0
vn 1 0 0
vn 1 0 0
vn 1 0 0
vn 0 1 0
vn 0 1 0
vn 0 1 0
vn 0 1 0
vn 0 -1 0
vn 0 -1 0
vn 0 -1 0
vn 0 -1 0

vt -0.84375 0.075
vt -1.40625 0.075
vt -0.84375 0.125
vt -1.40625 0.125
vt -0.28125 0.075
vt -0.46875 0.075
vt -0.28125 0.125
vt -0.46875 0.125
vt 1.40625 0.075
vt 0.84375 0.075
vt 1.40625 0.125
vt 0.84375 0.125
vt 0.46875 0.075
vt 0.28125 0.075
vt 0.46875 0.125
vt 0.28125 0.125
vt 0.21275 0.50025
vt 0.77525 0.50025
vt 0.21275 0.31275
vt 0.77525 0.31275
vt -0.84375 -0.46875
vt -1.40625 -0.46875
vt -0.84375 -0.28125
vt -1.40625 -0.28125

g Step2Mesh75Percent
f 3/3/3 4/4/4 2/2/2 1/1/1
f 7/7/7 8/8/8 6/6/6 5/5/5
f 11/11/11 12/12/12 10/10/10 9/9/9
f 15/15/15 16/16/16 14/14/14 13/13/13
f 19/19/19 20/20/20 18/18/18 17/17/17
f 23/23/23 24/24/24 22/22/22 21/21/21

