# Exported from ProBuilder
# http://www.procore3d.com/probuilder
# 22/04/2020 20:29:12

mtllib ./LargePlatformMesh.mtl
o LargePlatformMesh

g LargePlatform
v 2.25 0 4.5
v -2.25 0 4.5
v 2.25 0.2 4.5
v -2.25 0.2 4.5
v -2.25 0 4.5
v -2.25 0 0
v -2.25 0.2 4.5
v -2.25 0.2 0
v -2.25 0 0
v 2.25 0 0
v -2.25 0.2 0
v 2.25 0.2 0
v 2.25 0 0
v 2.25 0 4.5
v 2.25 0.2 0
v 2.25 0.2 4.5
v 2.25 0.2 4.5
v -2.25 0.2 4.5
v 2.25 0.2 0
v -2.25 0.2 0
v 2.25 0 0
v -2.25 0 0
v 2.25 0 4.5
v -2.25 0 4.5

vn 0 0 1
vn 0 0 1
vn 0 0 1
vn 0 0 1
vn -1 0 0
vn -1 0 0
vn -1 0 0
vn -1 0 0
vn 0 0 -1
vn 0 0 -1
vn 0 0 -1
vn 0 0 -1
vn 1 0 0
vn 1 0 0
vn 1 0 0
vn 1 0 0
vn 0 1 0
vn 0 1 0
vn 0 1 0
vn 0 1 0
vn 0 -1 0
vn 0 -1 0
vn 0 -1 0
vn 0 -1 0

vt -1.6875 0.075
vt -2.8125 0.075
vt -1.6875 0.125
vt -2.8125 0.125
vt -1.6875 0.075
vt -2.8125 0.075
vt -1.6875 0.125
vt -2.8125 0.125
vt 2.8125 0.075
vt 1.6875 0.075
vt 2.8125 0.125
vt 1.6875 0.125
vt 2.8125 0.075
vt 1.6875 0.075
vt 2.8125 0.125
vt 1.6875 0.125
vt 0.9386985 -0.75
vt 2.063699 -0.75
vt 0.9386985 -1.875
vt 2.063699 -1.875
vt -1.6875 -2.8125
vt -2.8125 -2.8125
vt -1.6875 -1.6875
vt -2.8125 -1.6875

g LargePlatform
usemtl Default_Prototype
f 3/3/3 4/4/4 2/2/2 1/1/1
f 7/7/7 8/8/8 6/6/6 5/5/5
f 11/11/11 12/12/12 10/10/10 9/9/9
f 15/15/15 16/16/16 14/14/14 13/13/13
f 19/19/19 20/20/20 18/18/18 17/17/17
f 23/23/23 24/24/24 22/22/22 21/21/21

