# Blender v2.77 (sub 0) OBJ File: ''
# www.blender.org
o Chevron
v 0.000292 0.000000 -1.000000
v 1.000000 0.000000 1.000000
v 0.002355 0.000000 -0.000295
v 1.000000 0.000000 -1.000000
v -1.000000 0.000000 -0.000503
v -0.001576 0.000000 1.000000
v 0.000292 -0.100000 -1.000000
v 1.000000 -0.100000 1.000000
v 0.002355 -0.100000 -0.000295
v 1.000000 -0.100000 -1.000000
v -1.000000 -0.100000 -0.000503
v -0.001576 -0.100000 1.000000
vt 0.500238 1.000000
vt 0.000000 0.500775
vt 0.000013 -0.000013
vt 0.500147 0.498822
vt 1.000013 0.000013
vt 1.000000 0.499867
vt 1.000000 0.499867
vt 1.000013 0.000013
vt 0.500147 0.498822
vt 0.000013 -0.000013
vt 0.000000 0.500775
vt 0.500238 1.000000
vn 0.000000 1.000000 0.000000
vn 0.000000 -1.000000 0.000000
vn -0.706800 0.000000 -0.707400
vn 0.000000 0.000000 1.000000
vn 0.708000 0.000000 -0.706200
vn 0.707800 0.000000 0.706400
vn 0.000000 0.000000 -1.000000
vn -0.707800 0.000000 0.706400
s off
f 5/1/1 6/2/1 2/3/1 3/4/1 4/5/1 1/6/1
f 7/7/2 10/8/2 9/9/2 8/10/2 12/11/2 11/12/2
f 5/1/3 1/6/3 7/7/3 11/12/3
f 2/3/4 6/2/4 12/11/4 8/10/4
f 3/4/5 2/3/5 8/10/5 9/9/5
f 4/5/6 3/4/6 9/9/6 10/8/6
f 1/6/7 4/5/7 10/8/7 7/7/7
f 6/2/8 5/1/8 11/12/8 12/11/8
