# Exported from ProBuilder
# http://www.procore3d.com/probuilder
# 16/05/2020 00:18:33

mtllib ./LongWallMesh.mtl
o LongWallMesh

g Long_Wall
v 1.5 1 0
v 1.5 0 0
v -1.5 0 0
v -1.5 1 0
v -1.5 1 0
v -1.5 0 0
v -1.5 0 -0.5
v -1.5 1 -0.5
v -1.5 1 -0.5
v -1.5 0 -0.5
v 1.5 0 -0.5
v 1.5 1 -0.5
v 1.5 1 -0.5
v 1.5 0 -0.5
v 1.5 0 0
v 1.5 1 0
v 1.5 1 -0.5
v 1.5 1 0
v -1.5 1 0
v -1.5 1 -0.5
v 1.5 0 0
v 1.5 0 -0.5
v -1.5 0 -0.5
v -1.5 0 0

vn 0 0 1
vn 0 0 1
vn 0 0 1
vn 0 0 1
vn -1 0 0
vn -1 0 0
vn -1 0 0
vn -1 0 0
vn 0 0 -1
vn 0 0 -1
vn 0 0 -1
vn 0 0 -1
vn 1 0 0
vn 1 0 0
vn 1 0 0
vn 1 0 0
vn 0 1 0
vn 0 1 0
vn 0 1 0
vn 0 1 0
vn 0 -1 0
vn 0 -1 0
vn 0 -1 0
vn 0 -1 0

vt -1.958907 0.2334704
vt -1.958907 -0.01652956
vt -2.708907 -0.01652956
vt -2.708907 0.2334704
vt -1.045709 0.2357341
vt -1.045709 -0.01426587
vt -1.170709 -0.01426587
vt -1.170709 0.2357341
vt 0.8757602 0.6771243
vt 0.8757602 0.4271243
vt 0.1257602 0.4271243
vt 0.1257602 0.6771243
vt -0.5394403 0.2514062
vt -0.5394403 0.001406193
vt -0.6644403 0.001406193
vt -0.6644403 0.2514062
vt 0.1258163 0.6666201
vt 0.1258163 0.7916201
vt 0.8758163 0.7916201
vt 0.8758163 0.6666201
vt -2.000448 -0.5751987
vt -2.000448 -0.7001987
vt -2.750448 -0.7001987
vt -2.750448 -0.5751987

g Long_Wall
usemtl Wood
f 4/4/4 3/3/3 2/2/2 1/1/1
f 8/8/8 7/7/7 6/6/6 5/5/5
f 12/12/12 11/11/11 10/10/10 9/9/9
f 16/16/16 15/15/15 14/14/14 13/13/13
f 20/20/20 19/19/19 18/18/18 17/17/17
f 24/24/24 23/23/23 22/22/22 21/21/21

