# Exported from ProBuilder
# http://www.procore3d.com/probuilder
# 15/12/2019 16:58:28

g NarrowPlatformMesh
v 0.375 0 3
v -0.375 0 3
v 0.375 0.2 3
v -0.375 0.2 3
v -0.375 0 3
v -0.375 0 0
v -0.375 0.2 3
v -0.375 0.2 0
v -0.375 0 0
v 0.375 0 0
v -0.375 0.2 0
v 0.375 0.2 0
v 0.375 0 0
v 0.375 0 3
v 0.375 0.2 0
v 0.375 0.2 3
v 0.375 0.2 3
v -0.375 0.2 3
v 0.375 0.2 0
v -0.375 0.2 0
v 0.375 0 0
v -0.375 0 0
v 0.375 0 3
v -0.375 0 3

vn 0 0 1
vn 0 0 1
vn 0 0 1
vn 0 0 1
vn -1 0 0
vn -1 0 0
vn -1 0 0
vn -1 0 0
vn 0 0 -1
vn 0 0 -1
vn 0 0 -1
vn 0 0 -1
vn 1 0 0
vn 1 0 0
vn 1 0 0
vn 1 0 0
vn 0 1 0
vn 0 1 0
vn 0 1 0
vn 0 1 0
vn 0 -1 0
vn 0 -1 0
vn 0 -1 0
vn 0 -1 0

vt 0 0
vt -0.75 0
vt 0 0.2
vt -0.75 0.2
vt -2.125 0.475
vt -2.875 0.475
vt -2.125 0.525
vt -2.875 0.525
vt 0.59375 0.475
vt 0.40625 0.475
vt 0.59375 0.525
vt 0.40625 0.525
vt 0.875 0.475
vt 0.125 0.475
vt 0.875 0.525
vt 0.125 0.525
vt 0.40625 -2.125
vt 0.59375 -2.125
vt 0.40625 -2.875
vt 0.59375 -2.875
vt -0.15625 -2.875
vt -0.34375 -2.875
vt -0.15625 -2.125
vt -0.34375 -2.125

g NarrowPlatformMesh
f 3/3/3 4/4/4 2/2/2 1/1/1
f 7/7/7 8/8/8 6/6/6 5/5/5
f 11/11/11 12/12/12 10/10/10 9/9/9
f 15/15/15 16/16/16 14/14/14 13/13/13
f 19/19/19 20/20/20 18/18/18 17/17/17
f 23/23/23 24/24/24 22/22/22 21/21/21

