# Exported from ProBuilder
# http://www.procore3d.com/probuilder
# 22/12/2019 15:01:23

g Platformx2Mesh
v 1.5 0 6
v -1.5 0 6
v 1.5 0.2 6
v -1.5 0.2 6
v -1.5 0 6
v -1.5 0 0
v -1.5 0.2 6
v -1.5 0.2 0
v -1.5 0 0
v 1.5 0 0
v -1.5 0.2 0
v 1.5 0.2 0
v 1.5 0 0
v 1.5 0 6
v 1.5 0.2 0
v 1.5 0.2 6
v 1.5 0.2 6
v -1.5 0.2 6
v 1.5 0.2 0
v -1.5 0.2 0
v 1.5 0 0
v -1.5 0 0
v 1.5 0 6
v -1.5 0 6

vn 0 0 1
vn 0 0 1
vn 0 0 1
vn 0 0 1
vn -1 0 0
vn -1 0 0
vn -1 0 0
vn -1 0 0
vn 0 0 -1
vn 0 0 -1
vn 0 0 -1
vn 0 0 -1
vn 1 0 0
vn 1 0 0
vn 1 0 0
vn 1 0 0
vn 0 1 0
vn 0 1 0
vn 0 1 0
vn 0 1 0
vn 0 -1 0
vn 0 -1 0
vn 0 -1 0
vn 0 -1 0

vt -1.125 0.075
vt -1.875 0.075
vt -1.125 0.125
vt -1.875 0.125
vt -2.375 0.075
vt -3.875 0.075
vt -2.375 0.125
vt -3.875 0.125
vt 1.875 0.075
vt 1.125 0.075
vt 1.875 0.125
vt 1.125 0.125
vt 3.875 0.075
vt 2.375 0.075
vt 3.875 0.125
vt 2.375 0.125
vt 1.125 -2.374
vt 1.875 -2.374
vt 1.125 -3.874
vt 1.875 -3.874
vt -1.125 -3.874
vt -1.875 -3.874
vt -1.125 -2.374
vt -1.875 -2.374

g Platformx2Mesh
f 3/3/3 4/4/4 2/2/2 1/1/1
f 7/7/7 8/8/8 6/6/6 5/5/5
f 11/11/11 12/12/12 10/10/10 9/9/9
f 15/15/15 16/16/16 14/14/14 13/13/13
f 19/19/19 20/20/20 18/18/18 17/17/17
f 23/23/23 24/24/24 22/22/22 21/21/21

