# Exported from ProBuilder
# http://www.procore3d.com/probuilder
# 20/12/2019 20:38:20

g Rampx15Mesh
v 1.5 0 15
v -1.5 0 15
v 1.5 0.2 15
v -1.5 0.2 15
v -1.5 0 15
v -1.5 0 0
v -1.5 0.2 15
v -1.5 0.2 0
v -1.5 0 0
v 1.5 0 0
v -1.5 0.2 0
v 1.5 0.2 0
v 1.5 0 0
v 1.5 0 15
v 1.5 0.2 0
v 1.5 0.2 15
v 1.5 0.2 15
v -1.5 0.2 15
v 1.5 0.2 0
v -1.5 0.2 0
v 1.5 0 0
v -1.5 0 0
v 1.5 0 15
v -1.5 0 15

vn 0 0 1
vn 0 0 1
vn 0 0 1
vn 0 0 1
vn -1 0 0
vn -1 0 0
vn -1 0 0
vn -1 0 0
vn 0 0 -1
vn 0 0 -1
vn 0 0 -1
vn 0 0 -1
vn 1 0 0
vn 1 0 0
vn 1 0 0
vn 1 0 0
vn 0 1 0
vn 0 1 0
vn 0 1 0
vn 0 1 0
vn 0 -1 0
vn 0 -1 0
vn 0 -1 0
vn 0 -1 0

vt -1.125 0.075
vt -1.875 0.075
vt -1.125 0.125
vt -1.875 0.125
vt -5.125 0.075
vt -8.875 0.075
vt -5.125 0.125
vt -8.875 0.125
vt 1.875 0.075
vt 1.125 0.075
vt 1.875 0.125
vt 1.125 0.125
vt 9.875 0.075
vt 6.125 0.075
vt 9.875 0.125
vt 6.125 0.125
vt 1.125 -5.125
vt 1.875 -5.125
vt 1.125 -8.875
vt 1.875 -8.875
vt -1.125 -8.875
vt -1.875 -8.875
vt -1.125 -5.125
vt -1.875 -5.125

g Rampx15Mesh
f 3/3/3 4/4/4 2/2/2 1/1/1
f 7/7/7 8/8/8 6/6/6 5/5/5
f 11/11/11 12/12/12 10/10/10 9/9/9
f 15/15/15 16/16/16 14/14/14 13/13/13
f 19/19/19 20/20/20 18/18/18 17/17/17
f 23/23/23 24/24/24 22/22/22 21/21/21

