# Exported from ProBuilder
# http://www.procore3d.com/probuilder
# 10/01/2020 19:15:23

g Lintel
v 0 0 0
v -1.66 0 0
v 0 0.2 0
v -1.66 0.2 0
v -1.66 0 0
v -1.66 0 -0.4
v -1.66 0.2 0
v -1.66 0.2 -0.4
v -1.66 0 -0.4
v 0 0 -0.4
v -1.66 0.2 -0.4
v 0 0.2 -0.4
v 0 0 -0.4
v 0 0 0
v 0 0.2 -0.4
v 0 0.2 0
v 0 0.2 0
v -1.66 0.2 0
v 0 0.2 -0.4
v -1.66 0.2 -0.4
v 0 0 -0.4
v -1.66 0 -0.4
v 0 0 0
v -1.66 0 0

vn 0 0 1
vn 0 0 1
vn 0 0 1
vn 0 0 1
vn -1 0 0
vn -1 0 0
vn -1 0 0
vn -1 0 0
vn 0 0 -1
vn 0 0 -1
vn 0 0 -1
vn 0 0 -1
vn 1 0 0
vn 1 0 0
vn 1 0 0
vn 1 0 0
vn 0 1 0
vn 0 1 0
vn 0 1 0
vn 0 1 0
vn 0 -1 0
vn 0 -1 0
vn 0 -1 0
vn 0 -1 0

vt -0.6225 0.075
vt -1.0375 0.075
vt -0.6225 0.125
vt -1.0375 0.125
vt -0.15 0.075
vt -0.25 0.075
vt -0.15 0.125
vt -0.25 0.125
vt 1.0375 0.075
vt 0.6225 0.075
vt 1.0375 0.125
vt 0.6225 0.125
vt 0.25 0.075
vt 0.15 0.075
vt 0.25 0.125
vt 0.15 0.125
vt 0.6225 -0.15
vt 1.0375 -0.15
vt 0.6225 -0.25
vt 1.0375 -0.25
vt -0.6225 -0.25
vt -1.0375 -0.25
vt -0.6225 -0.15
vt -1.0375 -0.15

g Lintel
f 3/3/3 4/4/4 2/2/2 1/1/1
f 7/7/7 8/8/8 6/6/6 5/5/5
f 11/11/11 12/12/12 10/10/10 9/9/9
f 15/15/15 16/16/16 14/14/14 13/13/13
f 19/19/19 20/20/20 18/18/18 17/17/17
f 23/23/23 24/24/24 22/22/22 21/21/21

