# Exported from ProBuilder
# http://www.procore3d.com/probuilder
# 13/07/2020 22:50:26

g Cube 2
v 0.25 0 0.5
v -0.25 0 0.5
v 0.25 0.2 0.5
v -0.25 0.2 0.5
v -0.25 0 0.5
v -0.25 0 0
v -0.25 0.2 0.5
v -0.25 0.2 0
v -0.25 0 0
v 0.25 0 0
v -0.25 0.2 0
v 0.25 0.2 0
v 0.25 0 0
v 0.25 0 0.5
v 0.25 0.2 0
v 0.25 0.2 0.5
v 0.25 0.2 0.5
v -0.25 0.2 0.5
v 0.25 0.2 0
v -0.25 0.2 0
v 0.25 0 0
v -0.25 0 0
v 0.25 0 0.5
v -0.25 0 0.5

vn 0 0 1
vn 0 0 1
vn 0 0 1
vn 0 0 1
vn -1 0 0
vn -1 0 0
vn -1 0 0
vn -1 0 0
vn 0 0 -1
vn 0 0 -1
vn 0 0 -1
vn 0 0 -1
vn 1 0 0
vn 1 0 0
vn 1 0 0
vn 1 0 0
vn 0 1 0
vn 0 1 0
vn 0 1 0
vn 0 1 0
vn 0 -1 0
vn 0 -1 0
vn 0 -1 0
vn 0 -1 0

vt -0.1253619 0.5125
vt -0.2503619 0.5125
vt -0.1253619 0.5625
vt -0.2503619 0.5625
vt -0.1253619 0.5125
vt -0.2503619 0.5125
vt -0.1253619 0.5625
vt -0.2503619 0.5625
vt 0.3746381 0.5125
vt 0.2496381 0.5125
vt 0.3746381 0.5625
vt 0.2496381 0.5625
vt 0.3746381 0.5125
vt 0.2496381 0.5125
vt 0.3746381 0.5625
vt 0.2496381 0.5625
vt 0.25 0.25
vt 0.375 0.25
vt 0.25 0.125
vt 0.375 0.125
vt -0.1253619 0.125
vt -0.2503619 0.125
vt -0.1253619 0.25
vt -0.2503619 0.25

g Cube 2
f 3/3/3 4/4/4 2/2/2 1/1/1
f 7/7/7 8/8/8 6/6/6 5/5/5
f 11/11/11 12/12/12 10/10/10 9/9/9
f 15/15/15 16/16/16 14/14/14 13/13/13
f 19/19/19 20/20/20 18/18/18 17/17/17
f 23/23/23 24/24/24 22/22/22 21/21/21

