# Exported from ProBuilder
# http://www.procore3d.com/probuilder
# 10/07/2020 15:37:22

g Block 4 (3x3)
v 1.5 0 2
v 0.5 0 2
v 1.5 0.2 2
v 0.5 0.2 2
v 0.5 0 2
v 0.5 0 1
v 0.5 0.2 2
v 0.5 0.2 1
v 0.5 0 1
v 1.5 0 1
v 0.5 0.2 1
v 1.5 0.2 1
v 1.5 0 1
v 1.5 0 2
v 1.5 0.2 1
v 1.5 0.2 2
v 1.5 0.2 2
v 0.5 0.2 2
v 1.5 0.2 1
v 0.5 0.2 1
v 1.5 0 1
v 0.5 0 1
v 1.5 0 2
v 0.5 0 2

vn 0 0 1
vn 0 0 1
vn 0 0 1
vn 0 0 1
vn -1 0 0
vn -1 0 0
vn -1 0 0
vn -1 0 0
vn 0 0 -1
vn 0 0 -1
vn 0 0 -1
vn 0 0 -1
vn 1 0 0
vn 1 0 0
vn 1 0 0
vn 1 0 0
vn 0 1 0
vn 0 1 0
vn 0 1 0
vn 0 1 0
vn 0 -1 0
vn 0 -1 0
vn 0 -1 0
vn 0 -1 0

vt 0.3750001 1.075746
vt 0.1250001 1.075746
vt 0.3750001 1.125746
vt 0.1250001 1.125746
vt 0.3750001 1.075746
vt 0.1250001 1.075746
vt 0.3750001 1.125746
vt 0.1250001 1.125746
vt 1.375 1.075746
vt 1.125 1.075746
vt 1.375 1.125746
vt 1.125 1.125746
vt 1.375 1.075746
vt 1.125 1.075746
vt 1.375 1.125746
vt 1.125 1.125746
vt 1.125 0.6257455
vt 1.375 0.6257455
vt 1.125 0.3757455
vt 1.375 0.3757455
vt 0.3750001 0.3757455
vt 0.1250001 0.3757455
vt 0.3750001 0.6257455
vt 0.1250001 0.6257455

g Block 4 (3x3)
f 3/3/3 4/4/4 2/2/2 1/1/1
f 7/7/7 8/8/8 6/6/6 5/5/5
f 11/11/11 12/12/12 10/10/10 9/9/9
f 15/15/15 16/16/16 14/14/14 13/13/13
f 19/19/19 20/20/20 18/18/18 17/17/17
f 23/23/23 24/24/24 22/22/22 21/21/21

