<?xml version="1.0" standalone="no"?>
<!DOCTYPE svg PUBLIC "-//W3C//DTD SVG 20010904//EN"
 "http://www.w3.org/TR/2001/REC-SVG-20010904/DTD/svg10.dtd">
<svg version="1.0" xmlns="http://www.w3.org/2000/svg"
 width="512.000000pt" height="512.000000pt" viewBox="0 0 512.000000 512.000000"
 preserveAspectRatio="xMidYMid meet">
<metadata>
Created by potrace 1.16, written by Peter Selinger 2001-2019
</metadata>
<g transform="translate(0.000000,512.000000) scale(0.100000,-0.100000)"
fill="#000000" stroke="none">
<path d="M560 4383 c8 -2 21 -7 29 -9 11 -3 11 -7 1 -19 -7 -8 -18 -15 -24
-15 -6 0 -4 4 4 10 8 5 12 12 8 15 -11 12 -38 -27 -37 -53 2 -24 2 -24 6 -4 8
39 23 24 23 -24 0 -27 -4 -43 -10 -39 -17 11 -11 -14 15 -54 23 -37 27 -67 76
-608 29 -312 55 -572 60 -577 4 -5 5 9 3 30 -9 73 -122 1299 -119 1301 1 2 43
6 93 9 51 4 92 10 92 14 0 3 -15 5 -32 3 -25 -3 -30 -2 -18 6 12 9 11 11 -8
11 -13 0 -20 -4 -17 -10 3 -5 -2 -10 -12 -10 -10 0 -36 -3 -58 -7 -38 -6 -39
-5 -25 12 9 11 10 16 3 11 -7 -4 -13 -2 -13 3 0 6 -12 11 -27 10 -16 0 -21 -3
-13 -6z"/>
<path d="M4550 4324 c0 -5 -32 -321 -70 -704 -39 -382 -70 -706 -68 -720 2
-14 36 301 76 698 41 398 71 726 68 730 -3 3 -6 1 -6 -4z"/>
</g>
</svg>
